<svg xmlns="http://www.w3.org/2000/svg" id="Livello_2" data-name="Livello 2" width="100" height="17.21" viewBox="0 0 100 17.21"><defs><style>      .cls-1 {        fill: #000;      }    </style></defs><g id="Livello_1-2" data-name="Livello 1"><g><path class="cls-1" d="m8.85,0h-4.82C1.81,0,0,1.81,0,4.03s1.81,4.03,4.03,4.03v9.15l1.58-1.94,1.57,1.94v-8.84h1.23c.41,0,.67.14.79.42.11.28.17.6.17.96v3.54h3.15v-3.76c0-.52-.08-.99-.24-1.41-.16-.42-.43-.76-.82-1.02.5-.32.87-.74,1.09-1.26.22-.52.33-1.15.33-1.86,0-2.64-1.34-3.96-4.02-3.96ZM2.1,4.03c0-1.06.86-1.93,1.93-1.93v3.85c-1.06,0-1.93-.86-1.93-1.93Zm7.16,1.59c-.19.25-.44.38-.76.38h-1.33v-3.49h1.27c.34,0,.61.13.81.38.19.25.29.72.29,1.39,0,.64-.09,1.08-.28,1.33Z"></path><path class="cls-1" d="m20.79,4.6c-.34-.32-.73-.55-1.16-.7-.44-.15-.9-.22-1.37-.22-.57,0-1.1.08-1.59.25-.49.17-.92.41-1.27.75-.36.33-.64.75-.85,1.25-.21.5-.31,1.1-.31,1.77v1.37c0,1.47.4,2.57,1.2,3.29.8.72,1.94,1.08,3.43,1.08.15,0,.33,0,.54-.02.21-.01.43-.03.65-.05.22-.02.43-.04.65-.07.21-.03.39-.06.54-.1v-2.25c-.25.07-.53.12-.85.15-.31.03-.59.05-.85.05-.78,0-1.39-.12-1.81-.35-.42-.23-.65-.65-.68-1.24h4.86v-1.85c0-.73-.1-1.35-.3-1.86-.2-.51-.47-.93-.81-1.24Zm-3.77,3.09c0-.68.11-1.13.33-1.35.22-.23.5-.34.85-.34s.61.11.81.34c.19.23.29.68.29,1.35h-2.27Z"></path><path class="cls-1" d="m30.8,4.64c-.28-.35-.61-.59-.99-.74-.38-.15-.79-.22-1.22-.22-.58,0-1.04.1-1.35.29-.32.19-.63.45-.94.79l-.2-.84h-2.61v13.28h2.93v-4.7c.31.28.62.49.94.63.32.14.72.21,1.2.21.44,0,.85-.08,1.23-.24.39-.16.72-.42,1.01-.77.29-.35.51-.81.67-1.37.16-.56.24-1.25.24-2.06v-.78c0-.85-.08-1.56-.24-2.12-.16-.56-.38-1.02-.66-1.36Zm-2.15,4.18c0,.66-.09,1.17-.27,1.52-.18.35-.48.53-.91.53-.23,0-.41-.05-.55-.15-.14-.1-.25-.23-.32-.39-.07-.16-.12-.34-.15-.55-.03-.21-.04-.41-.04-.63v-1.29c0-.21.01-.42.04-.63.03-.21.08-.39.16-.55.08-.16.19-.29.34-.39.15-.1.33-.15.56-.15.42,0,.72.15.89.46.17.31.25.84.25,1.59v.62Z"></path><path class="cls-1" d="m39.73,4.6c-.34-.32-.73-.55-1.16-.7-.44-.15-.9-.22-1.37-.22-.57,0-1.1.08-1.59.25-.49.17-.92.41-1.27.75-.36.33-.64.75-.85,1.25-.21.5-.31,1.1-.31,1.77v1.37c0,1.47.4,2.57,1.2,3.29.8.72,1.94,1.08,3.43,1.08.15,0,.33,0,.54-.02.21-.01.43-.03.65-.05.22-.02.43-.04.65-.07.21-.03.39-.06.54-.1v-2.25c-.25.07-.53.12-.85.15-.31.03-.59.05-.85.05-.78,0-1.39-.12-1.81-.35-.42-.23-.65-.65-.68-1.24h4.86v-1.85c0-.73-.1-1.35-.3-1.86-.2-.51-.47-.93-.81-1.24Zm-3.77,3.09c0-.68.11-1.13.33-1.35.22-.23.5-.34.85-.34s.61.11.81.34c.19.23.29.68.29,1.35h-2.27Z"></path><path class="cls-1" d="m47.44,3.82c-.31,0-.66.07-1.06.2-.4.13-.75.39-1.06.78l-.22-.88h-2.69v9.36h3.01v-5.4c0-.57.18-.97.53-1.19.35-.22.83-.33,1.42-.33.25,0,.5.03.76.08v-2.55c-.09-.03-.2-.05-.32-.06s-.25-.02-.38-.02Z"></path><path class="cls-1" d="m54.33,11.01c-.47,0-.77-.11-.92-.33-.15-.22-.22-.59-.22-1.11v-3.27h2.03v-2.39h-2.07V1.43h-2.93v2.49h-1.33v2.39h1.29v3.33c0,.66.06,1.24.17,1.72s.3.88.56,1.19c.26.31.59.53,1.01.68.41.15.92.22,1.51.22.31,0,.64-.02,1.02-.05.37-.03.65-.08.84-.13v-2.31c-.16.03-.31.04-.45.05-.14,0-.31,0-.51,0Z"></path><path class="cls-1" d="m63.49,4.7c-.37-.36-.81-.62-1.32-.78-.52-.16-1.09-.24-1.71-.24s-1.17.08-1.68.24c-.51.16-.95.42-1.31.78-.37.36-.65.82-.86,1.38-.21.56-.31,1.25-.31,2.06v.94c0,.81.1,1.5.3,2.07.2.57.48,1.04.85,1.39.37.36.8.62,1.31.78.51.16,1.08.24,1.7.24s1.21-.08,1.73-.24c.52-.16.96-.42,1.31-.78.36-.36.64-.82.84-1.39.2-.57.3-1.26.3-2.07v-.94c0-.81-.1-1.5-.3-2.06-.2-.56-.48-1.03-.85-1.38Zm-1.9,4.18c0,.76-.06,1.33-.19,1.73-.13.4-.44.6-.95.6s-.83-.2-.95-.6c-.11-.4-.17-.98-.17-1.73v-.52c0-.76.06-1.33.19-1.73.13-.4.45-.6.97-.6.25,0,.45.05.61.15.15.1.26.25.33.45.07.2.11.45.13.74.02.29.03.62.03,1v.52Z"></path><path class="cls-1" d="m71.3,3.82c-.31,0-.66.07-1.06.2s-.75.39-1.06.78l-.22-.88h-2.69v9.36h3.01v-5.4c0-.57.18-.97.53-1.19.35-.22.83-.33,1.42-.33.25,0,.5.03.76.08v-2.55c-.09-.03-.2-.05-.32-.06-.12-.01-.25-.02-.38-.02Z"></path><rect class="cls-1" x="73.31" y="3.92" width="3.01" height="9.36"></rect><rect class="cls-1" x="73.31" width="3.01" height="2.71"></rect><path class="cls-1" d="m82.91,9.22c0,.2-.01.39-.03.58-.02.19-.06.36-.13.51-.07.15-.16.27-.29.36-.13.09-.29.13-.49.13-.31,0-.52-.11-.64-.32-.12-.21-.18-.55-.18-1.02V3.92h-3.01v6.51c0,.56.07,1.03.2,1.42.13.39.32.71.56.96.24.25.52.42.85.54.33.11.68.17,1.07.17.29,0,.54-.03.76-.08.21-.05.4-.13.57-.23.17-.1.32-.21.46-.34.14-.13.28-.27.43-.43l.2.84h2.69V3.92h-3.01v5.3Z"></path><path class="cls-1" d="m99.78,5.28c-.15-.38-.35-.69-.6-.93-.25-.23-.54-.4-.88-.51-.33-.11-.68-.16-1.04-.16-.46,0-.87.08-1.22.25-.35.17-.7.43-1.05.81-.25-.38-.54-.66-.86-.82-.32-.16-.76-.24-1.33-.24-.49,0-.9.09-1.23.28s-.65.45-.96.8l-.2-.84h-2.67v9.36h2.99v-5.64c0-.4.08-.7.23-.92.15-.21.36-.32.63-.32.09,0,.19.01.28.03.09.02.18.07.26.14.08.07.14.18.19.32.05.14.07.33.07.57v5.82h2.99v-5.76c0-.36.07-.63.22-.83.15-.19.35-.29.62-.29.2,0,.38.06.55.18s.25.41.25.88v9.74h2.99V6.69c0-.56-.07-1.03-.22-1.41Z"></path></g></g></svg>